<svg xmlns="http://www.w3.org/2000/svg" viewBox="0 0 1280 720" role="img" aria-labelledby="title desc">
  <title id="title">GeminiVRM v0.1.0 release header</title>
  <desc id="desc">A release banner for GeminiVRM v0.1.0 derived from the repository hero artwork.</desc>
  <defs>
    <linearGradient id="bg" x1="0%" y1="0%" x2="100%" y2="100%">
      <stop offset="0%" stop-color="#f9f5eb" />
      <stop offset="55%" stop-color="#f5ead6" />
      <stop offset="100%" stop-color="#e7f5ef" />
    </linearGradient>
    <linearGradient id="panel" x1="0%" y1="0%" x2="100%" y2="100%">
      <stop offset="0%" stop-color="#ffffff" />
      <stop offset="100%" stop-color="#f2f7ff" />
    </linearGradient>
    <linearGradient id="accent" x1="0%" y1="0%" x2="100%" y2="100%">
      <stop offset="0%" stop-color="#2F7CF6" />
      <stop offset="100%" stop-color="#00B894" />
    </linearGradient>
    <filter id="shadow" x="-20%" y="-20%" width="140%" height="140%">
      <feDropShadow dx="0" dy="18" stdDeviation="28" flood-color="#2A2E431A" />
    </filter>
  </defs>

  <rect width="1280" height="720" fill="url(#bg)" />
  <circle cx="152" cy="110" r="84" fill="#ffffff8f" />
  <circle cx="1136" cy="584" r="128" fill="#ffffff66" />
  <path d="M0 624C196 544 354 520 520 580C700 644 908 650 1280 500V720H0Z" fill="#ffffff5e" />

  <g filter="url(#shadow)">
    <rect x="120" y="88" width="1040" height="548" rx="40" fill="url(#panel)" />
    <rect x="120" y="88" width="1040" height="84" rx="40" fill="#f4efe5" />
    <circle cx="180" cy="130" r="10" fill="#ff8b74" />
    <circle cx="212" cy="130" r="10" fill="#ffcb57" />
    <circle cx="244" cy="130" r="10" fill="#5ed08f" />
  </g>

  <g transform="translate(198 210)">
    <rect width="364" height="310" rx="30" fill="#f7fbff" stroke="#dce7f7" stroke-width="4" />
    <rect x="30" y="30" width="208" height="30" rx="15" fill="#e9f1fc" />
    <rect x="30" y="76" width="140" height="20" rx="10" fill="#e9f1fc" />
    <circle cx="182" cy="190" r="102" fill="url(#accent)" />
    <path d="M120 160c0-27 22-49 49-49h26c27 0 49 22 49 49v62c0 27-22 49-49 49h-8l-34 28v-28h-14c-27 0-49-22-49-49z" fill="#fff" fill-opacity="0.97" />
    <circle cx="174" cy="184" r="8" fill="#2F7CF6" />
    <circle cx="208" cy="184" r="8" fill="#2F7CF6" />
    <path d="M173 216c8 10 18 16 28 16s20-6 28-16" fill="none" stroke="#2F7CF6" stroke-linecap="round" stroke-width="6" />
  </g>

  <g transform="translate(620 184)">
    <rect x="0" y="0" width="182" height="42" rx="21" fill="#ffffff" stroke="#dbe8f7" stroke-width="2.5" />
    <text x="24" y="28" fill="#ff5d72" font-family="Montserrat, Arial, sans-serif" font-size="18" font-weight="700" letter-spacing="3">
      INITIAL RELEASE
    </text>

    <text x="0" y="110" fill="#1f2b3d" font-family="Montserrat, Arial, sans-serif" font-size="70" font-weight="700">
      GeminiVRM v0.1.0
    </text>
    <text x="0" y="160" fill="#475569" font-family="M PLUS 2, Arial, sans-serif" font-size="28">
      Release notes draft for the first tagged delivery
    </text>

    <g transform="translate(0 214)">
      <rect width="420" height="70" rx="22" fill="#ffffff" stroke="#dbe8f7" stroke-width="3" />
      <path d="M28 35h102" stroke="#2F7CF6" stroke-width="11" stroke-linecap="round" />
      <path d="M156 35h30" stroke="#00B894" stroke-width="11" stroke-linecap="round" />
      <path d="M214 35h80" stroke="#dbe8f7" stroke-width="11" stroke-linecap="round" />
      <circle cx="334" cy="35" r="11" fill="#00B894" />
      <text x="360" y="41" fill="#1f2b3d" font-family="Montserrat, Arial, sans-serif" font-size="20" font-weight="700">
        Gemini Live
      </text>
    </g>

    <g transform="translate(0 316)">
      <rect width="520" height="172" rx="30" fill="#1f2b3d" />
      <text x="40" y="48" fill="#eef4ff" font-family="Montserrat, Arial, sans-serif" font-size="24" font-weight="700">
        Highlights
      </text>
      <text x="40" y="88" fill="#c7d4e5" font-family="M PLUS 2, Arial, sans-serif" font-size="22">
        Streamed native audio and VRM lip sync
      </text>
      <text x="40" y="122" fill="#c7d4e5" font-family="M PLUS 2, Arial, sans-serif" font-size="22">
        Built-in motions, docs, CI, and smoke E2E
      </text>
      <text x="40" y="156" fill="#c7d4e5" font-family="M PLUS 2, Arial, sans-serif" font-size="22">
        Optional YouTube relay from Settings
      </text>
    </g>
  </g>
</svg>
