<!-- Generated by scripts/generate-release-header.mjs from public/favicon.svg -->
<svg xmlns="http://www.w3.org/2000/svg" viewBox="0 0 1280 720" role="img" aria-labelledby="title desc">
  <title id="title">GeminiVRM v0.1.0</title>
  <desc id="desc">A release banner for GeminiVRM v0.1.0 generated from the repository favicon.</desc>
  <defs>
    <linearGradient id="bg" x1="0%" y1="0%" x2="100%" y2="100%">
      <stop offset="0%" stop-color="#f9f5eb" />
      <stop offset="55%" stop-color="#f5ead6" />
      <stop offset="100%" stop-color="#e7f5ef" />
    </linearGradient>
    <linearGradient id="accent" x1="0%" y1="0%" x2="100%" y2="100%">
      <stop offset="0%" stop-color="#2F7CF6" />
      <stop offset="100%" stop-color="#00B894" />
    </linearGradient>
    <linearGradient id="panel" x1="0%" y1="0%" x2="100%" y2="100%">
      <stop offset="0%" stop-color="#ffffff" />
      <stop offset="100%" stop-color="#f2f7ff" />
    </linearGradient>
    <filter id="shadow" x="-20%" y="-20%" width="140%" height="140%">
      <feDropShadow dx="0" dy="18" stdDeviation="28" flood-color="#2A2E431A" />
    </filter>
  </defs>

  <rect width="1280" height="720" fill="url(#bg)" />
  <circle cx="156" cy="108" r="84" fill="#ffffff8f" />
  <circle cx="1138" cy="592" r="130" fill="#ffffff66" />
  <path d="M0 620C184 542 350 520 520 580C696 642 904 650 1280 500V720H0Z" fill="#ffffff5c" />

  <g filter="url(#shadow)">
    <rect x="104" y="84" width="1072" height="560" rx="42" fill="url(#panel)" />
    <rect x="104" y="84" width="1072" height="82" rx="42" fill="#f4efe5" />
    <circle cx="166" cy="124" r="10" fill="#ff8b74" />
    <circle cx="198" cy="124" r="10" fill="#ffcb57" />
    <circle cx="230" cy="124" r="10" fill="#5ed08f" />
  </g>

  <g transform="translate(146 186)">
    <rect width="412" height="356" rx="34" fill="#f8fbff" stroke="#dce7f7" stroke-width="4" />
    <circle cx="206" cy="178" r="138" fill="url(#accent)" fill-opacity="0.12" />
    <rect x="36" y="34" width="184" height="30" rx="15" fill="#e9f1fc" />
    <rect x="36" y="78" width="120" height="20" rx="10" fill="#e9f1fc" />
    <image
      href="../../favicon.svg"
      x="52"
      y="100"
      width="308"
      height="308"
      preserveAspectRatio="xMidYMid meet"
    />
  </g>

  <g transform="translate(620 178)">
    <rect x="0" y="0" width="194" height="42" rx="21" fill="#ffffff" stroke="#dbe8f7" stroke-width="2.5" />
    <text x="24" y="28" fill="#ff5d72" font-family="Montserrat, Arial, sans-serif" font-size="18" font-weight="700" letter-spacing="3">
      RELEASE NOTES
    </text>

    <text x="0" y="112" fill="#1f2b3d" font-family="Montserrat, Arial, sans-serif" font-size="68" font-weight="700">
      GeminiVRM v0.1.0
    </text>
    <text x="0" y="160" fill="#475569" font-family="M PLUS 2, Arial, sans-serif" font-size="28">
      Generated from public/favicon.svg for the published v0.1.0 release
    </text>

    <g transform="translate(0 214)">
      <rect width="456" height="74" rx="24" fill="#ffffff" stroke="#dbe8f7" stroke-width="3" />
      <path d="M28 37h118" stroke="#2F7CF6" stroke-width="12" stroke-linecap="round" />
      <path d="M172 37h34" stroke="#00B894" stroke-width="12" stroke-linecap="round" />
      <path d="M236 37h88" stroke="#dbe8f7" stroke-width="12" stroke-linecap="round" />
      <circle cx="348" cy="37" r="12" fill="#00B894" />
      <text x="374" y="44" fill="#1f2b3d" font-family="Montserrat, Arial, sans-serif" font-size="20" font-weight="700">
        Browser-first VRM chat powered by Gemini Live
      </text>
    </g>

    <g transform="translate(0 324)">
      <rect width="534" height="172" rx="30" fill="#1f2b3d" />
      <text x="38" y="50" fill="#eef4ff" font-family="Montserrat, Arial, sans-serif" font-size="24" font-weight="700">
        Highlights
      </text>
      <circle cx="18" cy="83" r="6" fill="#00B894" />
      <text x="38" y="90" fill="#c7d4e5" font-family="M PLUS 2, Arial, sans-serif" font-size="22">
        Gemini Live native audio
      </text>
      <circle cx="18" cy="121" r="6" fill="#00B894" />
      <text x="38" y="128" fill="#c7d4e5" font-family="M PLUS 2, Arial, sans-serif" font-size="22">
        Bundled VRM avatar + idle motions
      </text>
      <circle cx="18" cy="159" r="6" fill="#00B894" />
      <text x="38" y="166" fill="#c7d4e5" font-family="M PLUS 2, Arial, sans-serif" font-size="22">
        Optional YouTube relay
      </text>
    </g>
  </g>
</svg>
